<?xml version="1.0" encoding="iso-8859-1"?>
<!-- Generator: Adobe Illustrator 19.0.0, SVG Export Plug-In . SVG Version: 6.00 Build 0)  -->
<svg version="1.1" id="Capa_1" xmlns="http://www.w3.org/2000/svg" xmlns:xlink="http://www.w3.org/1999/xlink" x="0px" y="0px"
	 viewBox="0 0 512 512" style="enable-background:new 0 0 512 512;" xml:space="preserve">
<g>
	<g transform="translate(0 1)">
		<path style="fill:#E3E7F2;" d="M463.133,255.067c36.791-31.193,51.108-81.512,36.248-127.4s-55.956-78.263-104.048-81.968
			c-48.092-3.705-93.661,21.994-115.374,65.065c-18.064-2.146-36.355-1.349-54.164,2.358c-13.944,2.818-27.328,7.917-39.613,15.091
			c-20.211,12.126-30.383,27.688-30.451,42.914v28.227c0,0.876,0,1.684,0.067,2.56h-0.067l-21.154,12.733l-5.996,15.899
			l-32.067,0.808l-0.337,7.882l-0.472,12.126l-37.457,0.876l-0.876,22.097l-39.68,1.011l-10.981,6.602l0.876,34.627v28.16
			l58.678,1.751h0.067l157.238-94.316c25.381,3.822,51.306,1.583,75.655-6.535c9.255,9.964,20.174,18.239,32.27,24.455l-0.067,0.135
			c-6.077,8.302-9.313,18.343-9.229,28.632v147.2c-0.552,9.659,6.784,17.958,16.438,18.594h128.472
			c9.679-0.605,17.053-8.912,16.505-18.594v-147.2c0.052-10.283-3.182-20.314-9.229-28.632L463.133,255.067z M323.411,234.317
			c18.863-11.722,28.632-26.678,28.968-41.229V164.86c0.472-14.686-8.488-29.171-27.149-39.949
			c-6.243-3.607-12.862-6.522-19.739-8.691c18.989-31.834,54.923-49.525,91.732-45.163s67.613,29.961,78.637,65.351
			c11.024,35.39,0.206,73.954-27.615,98.447l-23.377-31.663c-4.979-7.243-13.206-11.571-21.996-11.571s-17.016,4.328-21.996,11.571
			l-34.223,46.417C338.18,245.712,330.344,240.556,323.411,234.317L323.411,234.317z"/>
		<path style="fill:#D4E1F4;" d="M223.503,223.942L66.266,318.326l-58.678-1.751l-0.876-34.628l10.981-6.602l39.68-1.011
			l0.876-22.097l37.457-0.876l0.472-12.126l0.337-7.882l32.067-0.808l5.996-15.899l21.154-12.733h0.067l9.634-5.794
			c4.932,5.73,10.839,10.543,17.448,14.215C195.447,217.379,209.228,221.996,223.503,223.942z"/>
		<path style="fill:#E3E7F2;" d="M56.351,306.368c-3.029,0.003-5.688-2.016-6.498-4.935c-0.81-2.919,0.427-6.019,3.024-7.578
			l149.908-89.947c2.064-1.239,4.631-1.282,6.736-0.114c2.105,1.168,3.426,3.37,3.467,5.776c0.041,2.407-1.205,4.652-3.269,5.891
			L59.811,305.407C58.767,306.036,57.57,306.368,56.351,306.368z"/>
		<g>
			<polygon style="fill:#A4C2F7;" points="223.573,223.942 223.573,252.17 66.335,346.486 66.268,346.486 66.268,318.326 
				223.506,223.942 			"/>
			<polygon style="fill:#A4C2F7;" points="66.268,318.326 66.268,346.486 7.59,344.734 7.59,316.574 			"/>
		</g>
		
			<linearGradient id="SVGID_1_" gradientUnits="userSpaceOnUse" x1="-48.4265" y1="650.8113" x2="-48.0802" y2="649.7964" gradientTransform="matrix(196.6661 0 0 -116.2151 9743.8447 75742.7266)">
			<stop  offset="0" style="stop-color:#D4E1F4"/>
			<stop  offset="0.1717" style="stop-color:#D4E1F4"/>
			<stop  offset="0.2" style="stop-color:#D4E1F4"/>
			<stop  offset="0.2001" style="stop-color:#DAE4F4"/>
			<stop  offset="0.2007" style="stop-color:#EBEBF4"/>
			<stop  offset="0.2014" style="stop-color:#F6F1F4"/>
			<stop  offset="0.2023" style="stop-color:#FDF4F4"/>
			<stop  offset="0.205" style="stop-color:#FFF5F4"/>
			<stop  offset="0.2522" style="stop-color:#FFF5F4"/>
			<stop  offset="0.26" style="stop-color:#FFF5F4"/>
			<stop  offset="0.26" style="stop-color:#D4E1F4"/>
			<stop  offset="0.3974" style="stop-color:#D4E1F4"/>
			<stop  offset="0.42" style="stop-color:#D4E1F4"/>
			<stop  offset="0.4201" style="stop-color:#DAE4F4"/>
			<stop  offset="0.4207" style="stop-color:#EBEBF4"/>
			<stop  offset="0.4214" style="stop-color:#F6F1F4"/>
			<stop  offset="0.4223" style="stop-color:#FDF4F4"/>
			<stop  offset="0.425" style="stop-color:#FFF5F4"/>
			<stop  offset="0.4894" style="stop-color:#FFF5F4"/>
			<stop  offset="0.5" style="stop-color:#FFF5F4"/>
			<stop  offset="0.5" style="stop-color:#F9F2F4"/>
			<stop  offset="0.5001" style="stop-color:#E8EBF4"/>
			<stop  offset="0.5003" style="stop-color:#DDE5F4"/>
			<stop  offset="0.5005" style="stop-color:#D6E2F4"/>
			<stop  offset="0.501" style="stop-color:#D4E1F4"/>
			<stop  offset="0.7062" style="stop-color:#D4E1F4"/>
			<stop  offset="0.74" style="stop-color:#D4E1F4"/>
			<stop  offset="0.741" style="stop-color:#FFF5F4"/>
			<stop  offset="0.8346" style="stop-color:#FFF5F4"/>
			<stop  offset="0.85" style="stop-color:#FFF5F4"/>
			<stop  offset="0.851" style="stop-color:#D4E1F4"/>
		</linearGradient>
		<path style="fill:url(#SVGID_1_);" d="M352.379,164.86v0.539c-0.539,14.821-10.779,29.844-30.383,41.634
			c-4.871,2.885-9.935,5.428-15.158,7.613c-7.987,3.218-16.237,5.743-24.657,7.545c-19.272,4.099-39.122,4.715-58.611,1.819v-0.067
			h-0.067c-14.275-1.947-28.056-6.563-40.623-13.608c-6.609-3.672-12.516-8.484-17.448-14.215
			c-6.099-6.835-9.541-15.633-9.701-24.792v-0.202c0.067-15.225,10.24-30.787,30.451-42.914
			c12.285-7.174,25.669-12.272,39.613-15.091c17.809-3.707,36.101-4.504,54.164-2.358c-0.741,1.415-1.482,2.897-2.088,4.379
			l27.621,1.078c6.877,2.169,13.496,5.083,19.739,8.691C343.891,135.69,352.851,150.174,352.379,164.86z"/>
		<g>
			<path style="fill:#A4C2F7;" d="M293.869,146.64c6.892,4.95,6.328,12.593-1.692,17.606l-0.564,0.376
				c-7.443,4.043-16.082,5.309-24.372,3.571c-2.73-0.461-5.359-1.394-7.769-2.757c-8.646-5.075-8.27-13.533,0.752-18.984
				c2.77-1.602,5.771-2.764,8.897-3.446"/>
			<path style="fill:#A4C2F7;" d="M352.379,165.399v27.688c-0.337,14.552-10.105,29.507-28.968,41.229
				c-0.472,0.337-0.943,0.606-1.415,0.943c-7.211,4.236-14.842,7.713-22.77,10.375c-24.349,8.118-50.274,10.357-75.655,6.535v-28.16
				c19.489,2.896,39.339,2.28,58.611-1.819c8.42-1.803,16.67-4.327,24.657-7.545c5.222-2.184,10.287-4.728,15.158-7.613
				C341.6,195.243,351.841,180.22,352.379,165.399z"/>
			<path style="fill:#A4C2F7;" d="M165.432,196.119l-9.634,5.794c-0.067-0.876-0.067-1.684-0.067-2.56v-28.025
				C155.891,180.487,159.333,189.284,165.432,196.119z"/>
			<path style="fill:#A4C2F7;" d="M413.975,254.153c-7.477-5.465-17.821-4.667-24.372,1.88c-0.693,0.694-1.322,1.449-1.88,2.255
				c-5.465,7.455-4.667,17.783,1.88,24.309c0.257,0.266,0.529,0.517,0.814,0.752c7.425,6.616,18.724,6.286,25.751-0.752
				c1.122-1.144,2.09-2.429,2.882-3.822"/>
			<path style="fill:#A4C2F7;" d="M346.653,249.61l-15.158,20.48c-12.095-6.216-23.015-14.491-32.269-24.455
				c7.928-2.662,15.559-6.139,22.77-10.375c0.472-0.337,0.943-0.606,1.415-0.943C330.344,240.556,338.18,245.712,346.653,249.61z"/>
			<path style="fill:#A4C2F7;" d="M505.238,164.389c0.079,34.968-15.34,68.174-42.105,90.678
				c-12.796,11.001-27.829,19.093-44.059,23.714c-9.32,2.696-18.936,4.235-28.632,4.581c-0.283-0.231-0.553-0.479-0.808-0.741
				c-6.562-6.522-7.364-16.864-1.886-24.32c8.892-0.106,17.721-1.514,26.206-4.177c12.676-3.898,24.369-10.468,34.291-19.267
				c32.435-28.597,41.163-75.64,21.146-113.969c-20.017-38.329-63.611-58.047-105.613-47.77s-71.567,47.895-71.625,91.137
				c-0.153,0.151-0.337,0.266-0.539,0.337c-7.435,4.085-16.093,5.352-24.387,3.571c-0.067-1.213-0.067-2.56-0.067-3.773
				c0.019-16.991,3.672-33.782,10.712-49.246l2.088-4.379c24.826-49.216,80.199-74.944,133.824-62.179
				S505.249,109.266,505.238,164.389z"/>
		</g>
	</g>
	<path style="fill:#FFFFFF;" d="M27.798,346.136v-15.089l-0.876-34.627l10.981-6.602l39.68-1.011l0.876-22.097l37.457-0.876
		l0.472-12.126l0.337-7.882l32.067-0.808l5.996-15.899l21.154-12.733h0.067c-0.067-0.876-0.067-1.684-0.067-2.56v-28.227
		c0.067-15.225,10.24-30.787,30.451-42.914c12.285-7.174,25.669-12.272,39.613-15.091c17.809-3.707,36.101-4.504,54.164-2.358
		c16.42-32.602,46.906-55.855,82.69-63.069s72.899,2.409,100.668,26.103c-25.814-30.382-65.135-45.808-104.722-41.083
		s-74.173,28.972-92.111,64.576c-18.064-2.146-36.355-1.349-54.164,2.358c-13.944,2.818-27.328,7.917-39.613,15.091
		c-20.211,12.126-30.383,27.688-30.451,42.914v28.227c0,0.876,0,1.684,0.067,2.56h-0.067l-21.154,12.733l-5.996,15.899
		l-32.067,0.808l-0.337,7.882l-0.472,12.126l-37.457,0.876l-0.876,22.097l-39.68,1.011l-10.981,6.602l0.876,34.627v28.16
		L27.798,346.136z"/>
	<g>
		<path style="fill:#FFFFFF;" d="M386.22,53.067c-27.848,0.016-54.695,10.386-75.322,29.096
			c-10.223,9.263-18.668,20.313-24.922,32.609l-12.032-6.064c21.451-42.318,64.832-69.022,112.276-69.115V53.067z"/>
		<g>
			<path style="fill:#428DFF;" d="M411.423,424.907h-56.388c-3.721,0-6.737,3.016-6.737,6.737c0,3.721,3.016,6.737,6.737,6.737
				h56.388c3.721,0,6.737-3.016,6.737-6.737C418.16,427.923,415.144,424.907,411.423,424.907z"/>
			<path style="fill:#428DFF;" d="M355.035,413.322h37.592c3.721,0,6.737-3.016,6.737-6.737c0-3.721-3.016-6.737-6.737-6.737
				h-37.592c-3.721,0-6.737,3.016-6.737,6.737C348.298,410.305,351.314,413.322,355.035,413.322z"/>
			<path style="fill:#428DFF;" d="M411.423,374.782h-56.388c-3.721,0-6.737,3.016-6.737,6.737c0,3.721,3.016,6.737,6.737,6.737
				h56.388c3.721,0,6.737-3.016,6.737-6.737C418.16,377.798,415.144,374.782,411.423,374.782z"/>
			<path style="fill:#428DFF;" d="M386.22,39.595v-0.002c-9.495,0.081-18.954,1.16-28.223,3.22c-1.783,0.38-3.332,1.476-4.282,3.033
				s-1.218,3.435-0.741,5.195c0.972,3.493,4.483,5.636,8.035,4.905c8.279-1.833,16.726-2.798,25.205-2.879l0.006,0.001
				c47.111-0.032,89.228,29.364,105.444,73.596c16.217,44.232,3.082,93.884-32.885,124.312
				c-12.111,10.355-26.314,17.974-41.638,22.339c-7.811,2.251-15.849,3.626-23.965,4.098c-2.465-3.351-2.988-7.75-1.377-11.586
				c54.431-3.029,96.56-48.836,95.033-103.33c-1.527-54.494-46.156-97.87-100.672-97.845c-35.434,0.127-68.227,18.76-86.474,49.135
				c-6.031,10.027-10.237,21.044-12.421,32.54c-0.913,4.828-1.453,9.718-1.618,14.629c-3.687,1.515-7.646,2.258-11.632,2.183
				c0.071-6.016,0.652-12.015,1.736-17.933c1.89-10.578,5.328-20.819,10.204-30.395l0.012-0.043l0.007,0.004
				c6.254-12.296,14.7-23.347,24.922-32.609c1.6-1.388,3.099-2.897,4.816-4.145c2.741-2.356,3.219-6.42,1.099-9.348
				c-1.081-1.473-2.726-2.432-4.541-2.646c-1.815-0.214-3.637,0.336-5.031,1.518c-1.914,1.407-3.605,3.081-5.393,4.639
				c-10.281,9.333-18.933,20.316-25.601,32.495c-32.371-3.531-65.043,3.024-93.547,18.767
				c-21.627,12.984-33.533,30.194-33.707,48.521c-0.001,0.053-0.03,0.097-0.03,0.15v0.258c0,0.104-0.024,0.206-0.023,0.311
				c0.001,0.091,0.022,0.18,0.023,0.271v26.2l-17.859,10.716c-1.303,0.784-2.304,1.985-2.839,3.408l-4.385,11.661l-27.553,0.657
				c-3.552,0.084-6.428,2.913-6.569,6.464l-0.549,13.711l-31.132,0.74c-3.552,0.084-6.428,2.913-6.569,6.464l-0.635,15.813
				l-33.359,0.849c-1.163,0.032-2.298,0.362-3.296,0.96L3.268,277.17c-2.077,1.246-3.325,3.512-3.266,5.934l0.822,34.487v27.882
				l-0.016,0.072c-0.001,0.034,0.017,0.063,0.016,0.097v0.12c0.033,0.221,0.077,0.441,0.133,0.657
				c0.036,0.647,0.165,1.284,0.382,1.894c0.147,0.275,0.313,0.539,0.498,0.789c0.247,0.482,0.551,0.933,0.905,1.343
				c0.305,0.264,0.634,0.5,0.981,0.705c0.345,0.288,0.718,0.539,1.114,0.751c0.488,0.175,0.994,0.293,1.509,0.352
				c0.324,0.104,0.657,0.181,0.993,0.232l0.182,0.005l0.038,0.008l0.028-0.006l58.521,1.749h0.077l0.098,0.02
				c0.086,0,0.158-0.046,0.243-0.049c0.698-0.029,1.387-0.168,2.041-0.412c0.222-0.081,0.44-0.175,0.652-0.28
				c0.183-0.088,0.382-0.134,0.557-0.239l155.308-93.187c7.475,1.045,15.013,1.578,22.561,1.595
				c16.851,0.008,33.608-2.512,49.711-7.476c7.398,7.453,15.723,13.926,24.77,19.259c-4.374,8.096-6.669,17.152-6.678,26.355v147.23
				c-0.548,13.396,9.824,24.721,23.217,25.349h128.441c13.391-0.631,23.759-11.955,23.211-25.349v-147.23
				c0.05-11.705-3.64-23.119-10.533-32.579l-7.66-10.359c37.722-35.214,50.051-89.926,31.078-137.915
				C484.231,70.985,437.823,39.495,386.22,39.595z M386.16,78.128c34.948-0.051,66.544,20.79,80.254,52.937
				s6.881,69.375-17.347,94.563l-18.776-25.421c-6.317-8.887-16.505-14.216-27.408-14.336h-0.007
				c-10.903,0.124-21.088,5.456-27.401,14.345l-30.887,41.834c-3.45-1.888-6.766-4.01-9.926-6.352
				c14.048-9.412,23.043-24.711,24.436-41.563l0.008-0.04v-27.908l0.013-0.115c0.533-17.967-10.289-34.303-30.467-45.99
				c-4.101-2.334-8.362-4.374-12.752-6.106C332.319,91.569,358.384,78.27,386.16,78.128z M329.659,262.272
				c-6.542-3.754-12.676-8.179-18.302-13.204c3.858-1.672,7.631-3.565,11.333-5.631c4.334,3.563,8.959,6.756,13.828,9.544
				L329.659,262.272z M260.73,158.939c-0.427-0.401-0.702-0.938-0.777-1.519c0.091-0.719,0.418-1.388,0.93-1.901
				C260.796,156.644,260.786,157.802,260.73,158.939z M189.63,134.999c24.512-13.389,52.371-19.409,80.224-17.336
				c-2.785,6.817-4.952,13.871-6.477,21.075c-2.307,0.756-4.531,1.744-6.638,2.948c-5.997,3.067-9.907,9.096-10.26,15.822
				c0.326,6.279,3.987,11.905,9.595,14.747c3.033,1.733,6.343,2.928,9.783,3.533c2.868,0.59,5.789,0.886,8.717,0.882
				c7.178,0.085,14.251-1.732,20.5-5.266l0.678-0.444c5.515-2.967,9.142-8.536,9.625-14.78c0.09-3.99-1.364-7.861-4.059-10.805
				c1.599-6.865,4.043-13.505,7.275-19.77c4.592,1.671,9.037,3.719,13.291,6.124c15.61,9.041,24.024,21.004,23.756,34.141
				l-0.006,0.03v0.379c-0.565,13.04-10.174,25.814-27.066,35.963c-4.587,2.722-9.365,5.11-14.296,7.145
				c-7.499,3.046-15.247,5.441-23.158,7.158c-0.125,0.016-0.25,0.039-0.368,0.066c-34.049,7.283-70.263,3.043-94.516-11.079
				c-15.163-8.798-23.588-20.403-23.793-32.7v-0.523C162.47,158.956,172.353,145.373,189.63,134.999z M216.834,249.333
				L73.022,335.62v-12.47l143.813-86.291V249.333z M14.298,324.517l45.25,1.359v14.685l-45.25-1.352V324.517z M19.63,283.065
				l37.895-0.967c3.549-0.092,6.417-2.92,6.559-6.467l0.635-15.799l31.132-0.74c3.552-0.084,6.428-2.913,6.569-6.464l0.549-13.711
				l25.78-0.615c2.747-0.065,5.179-1.792,6.145-4.365l5.158-13.72l24.207-14.526c4.569,4.448,9.675,8.308,15.201,11.49
				c0.491,0.285,1.03,0.527,1.528,0.806L52.877,294.855c-3.19,1.915-4.224,6.053-2.309,9.243c1.915,3.19,6.053,4.224,9.243,2.309
				l136.026-81.618c3.137,1.164,6.384,2.194,9.706,3.13l-141.032,84.62l-50.368-1.507l-0.579-24.329L19.63,283.065z
				 M230.308,247.185v-14.559c5.778,0.613,11.584,0.924,17.395,0.933c11.933,0.002,23.833-1.237,35.51-3.697
				c0.151-0.02,0.296-0.049,0.441-0.079c8.796-1.891,17.409-4.546,25.743-7.934c5.544-2.287,10.916-4.973,16.072-8.036
				c7.316-4.283,13.962-9.619,19.725-15.837c-1.953,11.464-10.803,22.586-25.791,31.929c-0.217,0.161-0.414,0.273-0.842,0.539
				c-6.806,4.016-14.015,7.308-21.507,9.822C275.573,247.394,252.795,249.755,230.308,247.185L230.308,247.185z M476.844,447.059
				c0.522,5.947-3.803,11.221-9.737,11.875H338.667c-5.937-0.65-10.265-5.926-9.743-11.875v-147.23
				c-0.04-8.896,2.768-17.571,8.013-24.757l49.375-66.845c3.689-5.547,9.909-8.88,16.571-8.882
				c6.662-0.001,12.882,3.33,16.574,8.875l19.515,26.424c-7.341,5.653-15.552,10.074-24.312,13.092
				c-9.887-5.099-21.933-3.26-29.848,4.557c-0.924,0.926-1.765,1.932-2.513,3.007c-7.5,10.117-6.418,24.21,2.54,33.062
				c0.341,0.353,0.701,0.686,1.079,1c4.641,4.176,10.665,6.482,16.908,6.474c6.844-0.005,13.404-2.74,18.224-7.599
				c0.855-0.899,1.65-1.853,2.38-2.856c13.854-4.295,26.847-10.989,38.386-19.778l7.148,9.666
				c5.174,7.139,7.935,15.743,7.882,24.559L476.844,447.059z"/>
			<path style="fill:#428DFF;" d="M332.146,64.694c1.633,0.533,3.406,0.433,4.969-0.28c1.495-0.818,2.659-2.13,3.294-3.711
				l0.32-1.222c0.081-0.442,0.105-0.893,0.071-1.341c0.026-0.426-0.01-0.853-0.107-1.268c-0.103-0.439-0.235-0.87-0.396-1.292
				c-0.717-1.655-2.056-2.963-3.728-3.639c-0.863-0.321-1.787-0.44-2.703-0.348c-2.808,0.235-5.236,2.051-6.255,4.678
				c-0.241,0.872-0.308,1.783-0.197,2.681c0.087,0.881,0.351,1.736,0.775,2.513C329.074,62.985,330.48,64.133,332.146,64.694z"/>
		</g>
	</g>
</g>
<g>
</g>
<g>
</g>
<g>
</g>
<g>
</g>
<g>
</g>
<g>
</g>
<g>
</g>
<g>
</g>
<g>
</g>
<g>
</g>
<g>
</g>
<g>
</g>
<g>
</g>
<g>
</g>
<g>
</g>
</svg>
