<svg height="512pt" viewBox="0 0 512.20987 512" width="512pt" xmlns="http://www.w3.org/2000/svg"><path d="m111.738281 175.125c-1.214843-10.453125-.953125-21.023438.769531-31.402344.710938-4.140625 4.332032-7.144531 8.53125-7.085937 14.679688.085937 47.957032 2.730469 65.878907 23.382812l-41.933594 53.417969zm0 0" fill="#b2cdf8"/><path d="m503.503906 324.714844c-2.953125 51.6875-31.851562 98.378906-76.800781 124.074218l-93.867187 28.074219c-12.625 1.078125-25.308594 1.394531-37.972657.9375-.683593 0-1.28125-.085937-1.960937-.085937-9.472656-.339844-18.945313-.597656-28.332032-1.195313l-93.867187-12.285156c-21.941406-3.945313-42.125-14.585937-57.769531-30.464844-1.453125-1.707031-2.816406-3.414062-4.097656-5.207031-8.621094-11.769531-19.757813-21.476562-32.597657-28.414062-12.628906-6.828126-27.132812-9.644532-38.996093-17.921876-2.902344-1.960937-13.738282-8.53125-14.421876-12.371093l-13.910156-69.972657c-.988281-4.875.082032-9.941406 2.960938-14 2.875-4.054687 7.304687-6.742187 12.230468-7.421874 14.25-1.875 33.023438-6.3125 43.179688-16.554688 8.445312-8.53125 16.296875-17.664062 24.402344-26.539062l56.40625-51.367188c9.238281-6.792969 18.871094-13.03125 28.84375-18.691406 11.894531-6.671875 24.378906-12.242188 37.289062-16.636719.71875-.335937 1.460938-.621094 2.21875-.855469l161.109375 5.632813c6.570313 2.558593 12.972657 5.289062 19.285157 8.363281 62.464843 30.121094 110.082031 90.625 106.667968 162.902344zm0 0" fill="#b2cdf8"/><g fill="#e7ebf4"><path d="m477.902344 324.714844c-2.949219 51.6875-31.851563 98.378906-76.796875 124.074218l-93.867188 28.074219c-4.78125.425781-9.558593.683594-14.335937.851563-9.472656-.339844-18.945313-.597656-28.332032-1.195313l-93.867187-12.285156c-21.941406-3.945313-42.125-14.585937-57.769531-30.464844-1.453125-1.707031-2.816406-3.414062-4.097656-5.207031-8.621094-11.769531-19.757813-21.476562-32.597657-28.414062-12.628906-6.828126-27.132812-9.644532-38.996093-17.921876-2.902344-1.960937-13.738282-8.53125-14.421876-12.371093l-13.910156-69.972657c-.988281-4.875.082032-9.941406 2.960938-14 2.875-4.054687 7.304687-6.742187 12.230468-7.421874 14.25-1.875 33.023438-6.3125 43.179688-16.554688 8.445312-8.53125 16.296875-17.664062 24.402344-26.539062l56.40625-51.367188c9.238281-6.792969 18.871094-13.03125 28.84375-18.691406 11.894531-6.671875 24.378906-12.242188 37.289062-16.636719l137.730469 4.777344c6.570313 2.558593 12.96875 5.289062 19.285156 8.363281 62.460938 30.121094 110.078125 90.625 106.664063 162.902344zm0 0"/><path d="m76.835938 186.3125c-.128907-4.207031 2.828124-7.882812 6.964843-8.65625 16.613281-3.285156 58.027344-8.199219 78.207031 18.707031 25.601563 34.132813-8.53125 59.734375-34.132812 59.734375-24.398438.007813-48.800781-23.261718-51.039062-69.785156zm0 0"/><path d="m392.570312 102.503906c.015626 37.019532-21.75 70.585938-55.550781 85.675782l-22.613281-1.449219-64.511719-4.097657c-33.917969-20.628906-51.175781-60.375-43.089843-99.242187 8.089843-38.863281 39.769531-68.425781 79.097656-73.8125 4.234375-.660156 8.515625-.972656 12.800781-.941406 24.898437-.011719 48.78125 9.875 66.390625 27.480469 17.605469 17.605468 27.488281 41.488281 27.476562 66.386718zm0 0"/><path d="m366.96875 102.503906c.035156 35.820313-20.371094 68.519532-52.5625 84.226563l-64.511719-4.097657c-33.917969-20.628906-51.175781-60.375-43.089843-99.242187 8.089843-38.863281 39.769531-68.425781 79.097656-73.8125 46.476562 6.3125 81.117187 46.023437 81.066406 92.925781zm0 0"/></g><path d="m426.703125 457.664062v28.839844c-.027344 9.414063-7.652344 17.039063-17.066406 17.066406h-59.734375c-9.414063-.027343-17.039063-7.652343-17.066406-17.066406v-12.542968c-.027344-7.695313 5.117187-14.449219 12.546874-16.46875l48.980469-13.398438 10.75-2.902344c5.136719-1.410156 10.640625-.34375 14.875 2.890625 4.234375 3.230469 6.71875 8.253907 6.714844 13.582031zm0 0" fill="#b2cdf8"/><path d="m401.105469 457.664062v28.839844c0 9.425782-7.644531 17.066406-17.070313 17.066406h-34.132812c-9.414063-.027343-17.039063-7.652343-17.066406-17.066406v-12.542968c-.027344-7.695313 5.117187-14.449219 12.546874-16.46875l48.980469-13.398438c4.273438 3.195312 6.773438 8.230469 6.742188 13.570312zm0 0" fill="#e7ebf4"/><path d="m264.570312 475.15625v11.347656c-.027343 9.414063-7.652343 17.039063-17.066406 17.066406h-59.734375c-9.414062-.027343-17.039062-7.652343-17.066406-17.066406v-22.1875c-.007813-5.066406 2.238281-9.875 6.128906-13.121094 3.890625-3.25 9.023438-4.601562 14.011719-3.6875l34.132812 6.144532c.167969 0 .253907.085937.425782.085937l25.171875 4.605469c8.117187 1.484375 14.007812 8.5625 13.996093 16.8125zm0 0" fill="#b2cdf8"/><path d="m238.96875 472.167969v12.546875c.457031 9.90625-7.164062 18.324218-17.066406 18.855468h-34.132813c-9.414062-.027343-17.039062-7.652343-17.066406-17.066406v-22.1875c-.007813-5.066406 2.238281-9.875 6.128906-13.121094 3.890625-3.25 9.023438-4.601562 14.011719-3.6875l34.132812 6.144532c.167969 0 .253907.085937.425782.085937 8.261718 2.238281 13.886718 9.878907 13.566406 18.429688zm0 0" fill="#e7ebf4"/><path d="m22.820312 369.855469c.683594 3.839843 11.519532 10.410156 14.421876 12.371093 11.863281 8.277344 26.367187 11.09375 38.996093 17.921876 12.839844 6.9375 23.976563 16.644531 32.597657 28.414062 1.28125 1.792969 2.644531 3.5 4.097656 5.207031 15.644531 15.878907 35.828125 26.519531 57.769531 30.464844v22.269531c.027344 9.414063 7.652344 17.039063 17.066406 17.066406h25.601563c-9.414063-.027343-17.039063-7.652343-17.066406-17.066406v-22.269531c-21.941407-3.945313-42.125-14.585937-57.773438-30.464844-1.449219-1.707031-2.8125-3.414062-4.09375-5.207031-8.625-11.769531-19.757812-21.476562-32.597656-28.414062-12.628906-6.828126-27.136719-9.644532-38.996094-17.921876-2.902344-1.960937-13.738281-8.53125-14.421875-12.371093l-13.910156-69.972657c-.988281-4.875.082031-9.941406 2.957031-14 2.878906-4.054687 7.304688-6.742187 12.230469-7.421874 14.253906-1.875 33.027343-6.3125 43.179687-16.554688 8.441406-8.53125 16.28125-5.46875 24.378906-14.335938-8.140624-11.542968-13.796874-40.035156-14.8125-61.257812-.128906-4.207031 2.824219-7.882812 6.964844-8.65625 9.191406-1.816406 18.550782-2.671875 27.917969-2.558594-1.203125-10.433594-.941406-20.988281.777344-31.351562.359375-2.191406 1.609375-4.136719 3.457031-5.375-6.789062-1.082032-13.648438-1.660156-20.523438-1.734375-4.199218-.058594-7.820312 2.945312-8.53125 7.085937-1.722656 10.363282-1.984374 20.914063-.777343 31.351563-9.371094-.117188-18.726563.742187-27.921875 2.558593-4.152344.769532-7.113282 4.460938-6.972656 8.679688.183593 17.433594 5.320312 34.457031 14.816406 49.082031-8.101563 8.867188-15.941406 17.988281-24.382813 26.511719-10.152343 10.242188-28.925781 14.679688-43.175781 16.554688-4.929688.679687-9.355469 3.367187-12.230469 7.421874-2.878906 4.058594-3.949219 9.125-2.960937 14zm0 0" fill="#fff"/><path d="m298.703125 17.171875c-8.410156.132813-16.769531 1.375-24.855469 3.695313-8.015625 2.550781-15.652344 6.171874-22.699218 10.761718-6.914063 4.796875-13.15625 10.496094-18.570313 16.9375-5.234375 6.574219-9.542969 13.839844-12.800781 21.589844-4.199219 10.269531-6.378906 21.253906-6.40625 32.347656h-17.066406c.027343-13.3125 2.636718-26.496094 7.679687-38.816406 3.890625-9.308594 9.0625-18.03125 15.359375-25.917969 6.472656-7.742187 13.964844-14.574219 22.273438-20.308593 8.453124-5.535157 17.632812-9.878907 27.269531-12.917969 9.695312-2.8125 19.722656-4.304688 29.816406-4.4375zm0 0" fill="#fff"/><path d="m400.574219 154.140625c-3.414063-1.664063-7.058594-3.292969-10.820313-4.898437 16.335938-31.730469 14.957032-69.679688-3.640625-100.140626-18.59375-30.460937-51.722656-49.0273432-87.410156-48.996093-12.441406.054687-24.773437 2.34375-36.402344 6.765625-2.238281.75-4.046875 2.425781-4.960937 4.601562-.917969 2.175782-.851563 4.640625.171875 6.765625 1.988281 4.003907 6.601562 5.953125 10.855469 4.582031 9.695312-3.679687 19.96875-5.59375 30.335937-5.648437 39.792969-.140625 74.378906 27.289063 83.308594 66.066406 8.925781 38.777344-10.179688 78.566407-46.027344 95.84375-27.539063-5.945312-55.8125-7.730469-83.882813-5.289062-34.304687-22.269531-47.894531-65.808594-32.347656-103.636719.945313-2.398438 2.199219-4.667969 3.277344-7.023438 1.925781-4.054687.519531-8.910156-3.277344-11.308593-2-1.238281-4.429687-1.574219-6.6875-.925781-2.261718.652343-4.140625 2.226562-5.175781 4.339843-1.3125 2.816407-2.789063 5.554688-3.933594 8.441407-10.472656 25.441406-10.1875 54.042968.792969 79.273437-5.433594 2.054687-10.765625 4.335937-16.015625 6.773437-20.941406-19.148437-53.785156-21.542968-67.695313-21.621093-8.410156-.046875-15.605468 6.027343-16.972656 14.328125-1.257812 8.039062-1.765625 16.175781-1.511718 24.308594-6.847657.382812-13.660157 1.238281-20.394532 2.5625-8.273437 1.605468-14.148437 8.992187-13.855468 17.414062.351562 16.710938 4.695312 33.09375 12.664062 47.789062-.972656 1.082032-1.957031 2.160157-2.921875 3.242188-5.449219 6.074219-11.089844 12.355469-16.84375 18.167969-11.03125 8.457031-24.363281 13.375-38.246094 14.105469-7.269531.988281-13.808593 4.941406-18.054687 10.925781-4.25 5.980469-5.832032 13.457031-4.371094 20.648437l13.875 69.800782c1.050781 5.886718 6.691406 10.546874 16.742188 17.066406l1.195312.785156c7.546875 4.878906 15.664062 8.800781 24.175781 11.683594 5.367188 1.914062 10.605469 4.175781 15.683594 6.765625 11.683594 6.320312 21.824219 15.148437 29.6875 25.855469 1.417969 1.988281 2.925781 3.890624 4.589844 5.828124 15.082031 15.714844 34.445312 26.652344 55.691406 31.453126v15.667968c0 14.140625 11.460937 25.601563 25.597656 25.601563h59.734375c14.136719 0 25.601563-11.460938 25.601563-25.601563v-1.082031c7.140625.332031 14.273437.664063 21.476562.902344 3.910157.136719 7.800781.199219 11.648438.199219 6.144531 0 12.140625-.222657 18.074219-.554688v.535156c0 14.140625 11.460937 25.601563 25.597656 25.601563h59.734375c14.140625 0 25.601562-11.460938 25.601562-25.601563v-33.046875c45.222657-27.472656 73.964844-75.503906 76.796875-128.34375 3.285156-69.621093-40.472656-136.746093-111.460937-170.972656zm-279.585938-8.96875c17.890625-.375 35.539063 4.175781 51.019531 13.148437-8.140624 4.625-16.355468 9.960938-24.523437 15.726563-8.800781-3.980469-18.234375-6.371094-27.871094-7.0625-.28125-7.300781.179688-14.609375 1.375-21.8125zm-35.515625 40.855469c8.503906-1.6875 17.160156-2.507813 25.832032-2.445313.152343 0 .28125.074219.425781.074219s.527343 0 .792969-.050781c16.214843-.878907 31.941406 5.726562 42.667968 17.921875 7.121094 7.394531 9.136719 18.328125 5.117188 27.773437-6.964844 11.246094-19.207032 18.140625-32.433594 18.269531-19.03125 0-40.441406-19.257812-42.496094-61.542968zm409.496094 138.277344c-2.296875 43.582031-24.480469 83.699218-60.175781 108.816406-.9375-3.710938-4.261719-6.320313-8.089844-6.347656-4.710937 0-8.53125 3.820312-8.53125 8.53125v51.199218c0 4.714844-3.820313 8.535156-8.535156 8.535156h-59.734375c-4.710938 0-8.53125-3.820312-8.53125-8.535156v-25.597656c0-4.714844-3.820313-8.535156-8.535156-8.535156-4.710938 0-8.53125 3.820312-8.53125 8.535156v7.890625c-9.457032.566406-19.167969.855469-29.160157.472656-7.390625-.25-14.710937-.582031-22.039062-.921875v-7.441406c0-4.714844-3.824219-8.535156-8.535157-8.535156-4.714843 0-8.535156 3.820312-8.535156 8.535156v25.597656c0 4.714844-3.820312 8.535156-8.53125 8.535156h-59.734375c-4.710937 0-8.53125-3.820312-8.53125-8.535156v-42.664062c0-4.714844-3.820312-8.535156-8.535156-8.535156-4.710937 0-8.53125 3.820312-8.53125 8.535156v9.1875c-16.324219-4.035156-31.152344-12.644532-42.753906-24.8125-1.296875-1.511719-2.507813-3.03125-3.710938-4.710938-9.386719-12.789062-21.496093-23.332031-35.457031-30.867187-5.710938-2.941407-11.609375-5.507813-17.65625-7.679688-7.242188-2.421875-14.164062-5.71875-20.617188-9.8125l-1.542968-1.015625c-3.398438-2.011718-6.585938-4.367187-9.507813-7.03125l-13.652343-68.898437c-.535157-2.59375.039062-5.292969 1.589843-7.441407 1.484375-2.109374 3.785157-3.507812 6.347657-3.847656 15.359374-2.023437 36.179687-6.964844 48.128906-19.003906 6.046875-6.117188 11.835937-12.5625 17.414062-18.773438l.710938-.792968c9.449218 10.109375 22.574218 15.988281 36.410156 16.296875 19.714844-.09375 37.890625-10.660157 47.734375-27.742188 6.957031-15.21875 4.304687-33.109375-6.773437-45.652343-1.882813-2.46875-3.976563-4.769532-6.257813-6.875 6.207031-4.191407 12.410156-8.160157 18.554687-11.625 10.226563-5.6875 20.902344-10.539063 31.914063-14.507813 4.332031 6.632813 9.414063 12.746094 15.144531 18.210937-9.625 1.441407-15.71875 2.808594-16.742187 3.039063-4.59375 1.058594-7.460938 5.644531-6.398438 10.238281 1.058594 4.597656 5.644531 7.460938 10.238281 6.402344 1.066407-.257812 107.929688-24.066406 172.160157 24.105469 3.769531 2.828125 9.121093 2.0625 11.949219-1.707031 2.828124-3.769532 2.0625-9.117188-1.707032-11.945313-12.085937-8.917969-25.421875-16-39.578125-21.007813 8.5-6.066406 16.015625-13.410156 22.269531-21.769531 4.492188 1.867188 8.773438 3.738281 12.742188 5.664063 64.84375 31.300781 104.824219 92.066406 101.84375 154.839844zm0 0" fill="#51a1ff"/><path d="m230.242188 38.402344c1.640624 1.488281 3.757812 2.347656 5.972656 2.421875 2.113281.0625 4.171875-.648438 5.800781-1.996094 1.46875-1.492187 2.417969-3.417969 2.699219-5.496094v-1.585937c-.039063-.582032-.15625-1.15625-.34375-1.707032-.097656-.53125-.273438-1.046874-.519532-1.527343-.253906-.507813-.535156-1.003907-.855468-1.476563-1.378906-1.824218-3.441406-3.011718-5.714844-3.285156-1.191406-.097656-2.386719.050781-3.515625.4375-3.425781 1.296875-5.808594 4.433594-6.144531 8.078125.027344 1.160156.285156 2.300781.757812 3.355469.421875 1.046875 1.054688 1.992187 1.863282 2.78125zm0 0" fill="#51a1ff"/><path d="m273.105469 130c0-4.714844-3.824219-8.535156-8.535157-8.535156-4.714843 0-8.535156 3.820312-8.535156 8.535156 0 18.925781 19.140625 34.328125 42.667969 34.328125s42.667969-15.359375 42.667969-34.328125c0-16.574219-14.6875-30.4375-34.132813-33.621094v-34.132812c9.8125 2.4375 17.066407 8.820312 17.066407 16.160156 0 4.714844 3.820312 8.535156 8.53125 8.535156 4.714843 0 8.535156-3.820312 8.535156-8.535156 0-16.578125-14.6875-30.4375-34.132813-33.628906v-2.003906c0-4.714844-3.820312-8.535157-8.535156-8.535157-4.710937 0-8.53125 3.820313-8.53125 8.535157v2.019531c-19.449219 3.191406-34.136719 17.066406-34.136719 33.632812 0 16.5625 14.6875 30.4375 34.136719 33.628907v34.132812c-9.816406-2.464844-17.066406-8.847656-17.066406-16.1875zm51.199219 0c0 7.339844-7.253907 13.722656-17.066407 16.160156v-32.3125c9.8125 2.429688 17.066407 8.8125 17.066407 16.152344zm-51.199219-51.574219c0-7.339843 7.25-13.722656 17.066406-16.164062v32.324219c-9.816406-2.441407-17.066406-8.824219-17.066406-16.160157zm0 0" fill="#51a1ff"/></svg>